<svg
  xmlns="http://www.w3.org/2000/svg"
  width="24"
  height="24"
  fill="currentColor"
  viewBox="0 0 24 24"
>
  <path d="M12 4.5a1 1 0 011 1V7a1 1 0 11-2 0V5.5a1 1 0 011-1zm6.364.636a1 1 0 011.415 0l1.414 1.414a1 1 0 01-1.415 1.415L18.364 6.55a1 1 0 010-1.414zM18.5 12a1 1 0 110 2h-1.5a1 1 0 110-2h1.5zm-6.5 7.5a1 1 0 011-1h1.5a1 1 0 110 2H12.5a1 1 0 01-1-1zm6.364-.636a1 1 0 010 1.415L16.95 22.05a1 1 0 01-1.415-1.415l1.415-1.415a1 1 0 011.414 0zm-12.728 0a1 1 0 010 1.415L4.636 22.05a1 1 0 01-1.415-1.415l1.415-1.415a1 1 0 011.414 0zM5.5 12a1 1 0 110 2H4a1 1 0 110-2h1.5zm6.5-7.5a1 1 0 011-1h1.5a1 1 0 110 2H12.5a1 1 0 01-1-1zm-4.864 1.136a1 1 0 010 1.414L4.636 6.55a1 1 0 11-1.415-1.415l1.414-1.414a1 1 0 011.415 0zm12.728 0a1 1 0 011.414 0l1.415 1.415a1 1 0 11-1.415 1.415L18.364 6.55a1 1 0 010-1.414z" />
</svg>